<svg xmlns="http://www.w3.org/2000/svg" viewBox="0 0 530.69 348.77"><defs><style>.cls-1{fill:#f50;}</style></defs><g id="Capa_2" data-name="Capa 2"><path class="cls-1" d="M529.62,287.89q2.93,9.45-16.7,28.07l-.57.48-6.1,2Q501.11,303.73,499,295c8.2-6.95,14.42-10.95,18.72-12C523.94,281,527.92,282.69,529.62,287.89Z" transform="translate(-367.57 -199.23)"/><path class="cls-1" d="M884.94,320.51c-17.65-4.92-122.43,20-122.43,20-110,32.5-112.76,8.8-112.76,8.8-14.35-41.94-47.82-50.24-76.81-48.44Q592.8,268.53,577,245.5q-9-10-30.22-12.9a102.76,102.76,0,0,0-42.09,3.47q-41.25,13.58-69.92,42.67,8.55,32.58,15.2,58.49L417.56,348c17.5-7.5-20.12-92.48-20.12-92.48,199.82-90,231.31-58.57,234.66,0,2.35,41.26,10.52,37.14,20.42,35C759.11,267.57,881.79,319.19,884.94,320.51Z" transform="translate(-367.57 -199.23)"/><path class="cls-1" d="M895,343c-22.49,2.5-92.48,60-152.47,112.48s-70,45-70,45S650,500.51,648,473s-15.44-32.49-15.44-32.49c-35-22.5-205,107.48-205,107.48-2.5-27.5-60-157.48-60-157.48L450.06,358s1.7-.7,4.77-1.92q13.13,51.76,17,70.81,26.54,1.75,65.46-4-6.82-26.54-15.82-57.39L584.81,409l37.92-50.42q-30.3-10.15-70.42-31.22c1.7-1.82,3.35-3.65,4.93-5.45,1.77-.47,3.55-.9,5.3-1.32,53.09-12.78,61.24,11.24,71.19,37.14s62.54,21.6,62.54,21.6C821.25,339.28,917.48,340.53,895,343Z" transform="translate(-367.57 -199.23)"/></g></svg>